<?xml version="1.0" standalone="no"?>
<!DOCTYPE svg PUBLIC "-//W3C//DTD SVG 20010904//EN"
 "http://www.w3.org/TR/2001/REC-SVG-20010904/DTD/svg10.dtd">
<svg version="1.0" xmlns="http://www.w3.org/2000/svg"
 width="93.000000pt" height="90.000000pt" viewBox="0 0 93.000000 90.000000"
 preserveAspectRatio="xMidYMid meet">

<g transform="translate(0.000000,90.000000) scale(0.100000,-0.100000)"
fill="#000000" stroke="none">
<path d="M720 707 c0 -3 22 -19 50 -36 58 -36 80 -66 87 -120 9 -65 -17 -65
-85 0 l-56 54 43 -50 43 -50 -38 -11 c-38 -12 -38 -12 26 -10 l65 1 3 -42 c4
-50 -16 -84 -72 -124 -21 -16 -35 -29 -29 -29 5 0 29 14 51 30 23 17 44 30 47
30 3 0 5 -24 5 -52 0 -71 -25 -116 -83 -154 -68 -44 -71 -53 -7 -17 96 54 100
66 100 278 0 173 -1 184 -22 214 -20 28 -128 102 -128 88z"/>
</g>
</svg>
